<svg width="176" height="38" viewBox="0 0 176 38" fill="none" xmlns="http://www.w3.org/2000/svg">
<path d="M161.277 20.9107V28.7857H159.265V11.3312H161.277V17.7403H161.447C161.754 17.0641 162.214 16.5272 162.828 16.1295C163.447 15.7261 164.271 15.5244 165.299 15.5244C166.192 15.5244 166.973 15.7033 167.643 16.0613C168.314 16.4136 168.834 16.9562 169.203 17.6891C169.578 18.4164 169.765 19.3425 169.765 20.4675V28.7857H167.754V20.6039C167.754 19.5641 167.484 18.7602 166.944 18.192C166.41 17.6181 165.669 17.3312 164.72 17.3312C164.061 17.3312 163.47 17.4704 162.947 17.7488C162.43 18.0272 162.021 18.4335 161.72 18.9675C161.424 19.5016 161.277 20.1494 161.277 20.9107Z" fill="url(#paint0_linear_1_88)"/>
<path d="M151.177 29.0584C149.95 29.0584 148.893 28.7687 148.007 28.1891C147.12 27.6096 146.439 26.8113 145.961 25.7942C145.484 24.7772 145.245 23.6153 145.245 22.3084C145.245 20.9789 145.49 19.8056 145.978 18.7886C146.473 17.7658 147.16 16.9675 148.041 16.3937C148.927 15.8141 149.961 15.5244 151.143 15.5244C152.064 15.5244 152.893 15.6948 153.632 16.0357C154.37 16.3766 154.976 16.8539 155.447 17.4675C155.919 18.0812 156.211 18.7971 156.325 19.6153H154.314C154.16 19.0187 153.819 18.4903 153.291 18.03C152.768 17.5641 152.064 17.3312 151.177 17.3312C150.393 17.3312 149.706 17.5357 149.115 17.9448C148.53 18.3482 148.072 18.9192 147.743 19.6579C147.419 20.3908 147.257 21.2516 147.257 22.2403C147.257 23.2516 147.416 24.1323 147.734 24.8823C148.058 25.6323 148.513 26.2147 149.098 26.6295C149.689 27.0442 150.382 27.2516 151.177 27.2516C151.7 27.2516 152.174 27.1607 152.601 26.9789C153.027 26.7971 153.388 26.5357 153.683 26.1948C153.978 25.8539 154.189 25.4448 154.314 24.9675H156.325C156.211 25.7403 155.93 26.4363 155.481 27.0556C155.038 27.6692 154.45 28.1579 153.717 28.5215C152.99 28.8795 152.143 29.0584 151.177 29.0584Z" fill="url(#paint1_linear_1_88)"/>
<path d="M137.379 29.0584C136.118 29.0584 135.03 28.78 134.115 28.2232C133.206 27.6607 132.504 26.8766 132.01 25.8709C131.521 24.8596 131.277 23.6834 131.277 22.3425C131.277 21.0016 131.521 19.8198 132.01 18.7971C132.504 17.7687 133.192 16.9675 134.072 16.3937C134.959 15.8141 135.993 15.5244 137.174 15.5244C137.856 15.5244 138.53 15.638 139.194 15.8653C139.859 16.0925 140.464 16.4619 141.01 16.9732C141.555 17.4789 141.99 18.1494 142.314 18.9846C142.638 19.8198 142.799 20.8482 142.799 22.0698V22.9221H132.709V21.1834H140.754C140.754 20.4448 140.606 19.7857 140.311 19.2062C140.021 18.6266 139.606 18.1692 139.067 17.834C138.532 17.4988 137.902 17.3312 137.174 17.3312C136.373 17.3312 135.68 17.53 135.095 17.9278C134.515 18.3198 134.069 18.8312 133.757 19.4619C133.444 20.0925 133.288 20.7687 133.288 21.4903V22.6494C133.288 23.638 133.459 24.4761 133.799 25.1636C134.146 25.8454 134.626 26.3653 135.24 26.7232C135.853 27.0755 136.567 27.2516 137.379 27.2516C137.907 27.2516 138.385 27.1778 138.811 27.03C139.243 26.8766 139.615 26.6494 139.927 26.3482C140.24 26.0414 140.481 25.6607 140.652 25.2062L142.595 25.7516C142.39 26.4107 142.047 26.9903 141.564 27.4903C141.081 27.9846 140.484 28.3709 139.774 28.6494C139.064 28.9221 138.265 29.0584 137.379 29.0584Z" fill="url(#paint2_linear_1_88)"/>
<path d="M117.709 13.2062V11.3312H130.799V13.2062H125.311V28.7857H123.197V13.2062H117.709Z" fill="url(#paint3_linear_1_88)"/>
<path d="M109.194 29.0414C107.87 29.0414 106.726 28.7601 105.76 28.1976C104.799 27.6295 104.058 26.8397 103.535 25.8283C103.013 24.8113 102.751 23.6323 102.751 22.2914C102.751 20.9391 103.013 19.7573 103.535 18.7459C104.058 17.7289 104.799 16.9391 105.76 16.3766C106.726 15.8084 107.87 15.5244 109.194 15.5244C110.518 15.5244 111.66 15.8084 112.62 16.3766C113.586 16.9391 114.331 17.7289 114.853 18.7459C115.376 19.7573 115.638 20.9391 115.638 22.2914C115.638 23.6323 115.376 24.8113 114.853 25.8283C114.331 26.8397 113.586 27.6295 112.62 28.1976C111.66 28.7601 110.518 29.0414 109.194 29.0414ZM109.211 26.2289C109.814 26.2289 110.317 26.0584 110.72 25.7175C111.123 25.3709 111.427 24.8994 111.632 24.3028C111.842 23.7062 111.947 23.0272 111.947 22.2658C111.947 21.5045 111.842 20.8255 111.632 20.2289C111.427 19.6323 111.123 19.1607 110.72 18.8141C110.317 18.4675 109.814 18.2942 109.211 18.2942C108.603 18.2942 108.092 18.4675 107.677 18.8141C107.268 19.1607 106.959 19.6323 106.748 20.2289C106.544 20.8255 106.441 21.5045 106.441 22.2658C106.441 23.0272 106.544 23.7062 106.748 24.3028C106.959 24.8994 107.268 25.3709 107.677 25.7175C108.092 26.0584 108.603 26.2289 109.211 26.2289Z" fill="white"/>
<path d="M88.09 28.7857V11.3312H91.7206V17.8937H91.8314C91.9905 17.5414 92.2206 17.1834 92.5218 16.8198C92.8286 16.4505 93.2263 16.1437 93.715 15.8994C94.2093 15.6494 94.8229 15.5244 95.5559 15.5244C96.5104 15.5244 97.3911 15.7744 98.1979 16.2744C99.0047 16.7687 99.6496 17.5158 100.133 18.5158C100.616 19.5102 100.857 20.7573 100.857 22.2573C100.857 23.7175 100.621 24.9505 100.15 25.9562C99.6837 26.9562 99.0474 27.7147 98.2405 28.2317C97.4394 28.7431 96.5417 28.9988 95.5474 28.9988C94.8428 28.9988 94.2434 28.8823 93.7491 28.6494C93.2604 28.4164 92.8599 28.1238 92.5474 27.7715C92.2349 27.4136 91.9962 27.0528 91.8314 26.6891H91.6695V28.7857H88.09ZM91.6439 22.2403C91.6439 23.0187 91.7519 23.6977 91.9678 24.2772C92.1837 24.8567 92.4962 25.3084 92.9053 25.6323C93.3144 25.9505 93.8116 26.1096 94.3968 26.1096C94.9877 26.1096 95.4877 25.9477 95.8968 25.6238C96.3059 25.2942 96.6155 24.8397 96.8258 24.2602C97.0417 23.6749 97.1496 23.0016 97.1496 22.2403C97.1496 21.4846 97.0445 20.8198 96.8343 20.2459C96.6241 19.6721 96.3144 19.2232 95.9053 18.8994C95.4962 18.5755 94.9934 18.4136 94.3968 18.4136C93.8059 18.4136 93.3059 18.5698 92.8968 18.8823C92.4934 19.1948 92.1837 19.638 91.9678 20.2119C91.7519 20.7857 91.6439 21.4619 91.6439 22.2403Z" fill="white"/>
<path d="M78.2015 28.7857V15.6948H81.7214V17.9789H81.8577C82.0964 17.1664 82.4969 16.5528 83.0594 16.138C83.6219 15.7176 84.2697 15.5073 85.0026 15.5073C85.1844 15.5073 85.3805 15.5187 85.5907 15.5414C85.8009 15.5641 85.9856 15.5954 86.1447 15.6352V18.8568C85.9742 18.8056 85.7384 18.7602 85.4373 18.7204C85.1361 18.6806 84.8606 18.6607 84.6106 18.6607C84.0765 18.6607 83.5992 18.7772 83.1787 19.0102C82.764 19.2374 82.4344 19.5556 82.1901 19.9647C81.9515 20.3738 81.8322 20.8454 81.8322 21.3795V28.7857H78.2015Z" fill="white"/>
<path d="M71.6667 23.2119V15.6948H75.2974V28.7857H71.8116V26.4079H71.6752C71.3797 27.1749 70.8883 27.7914 70.2008 28.2573C69.5189 28.7232 68.6866 28.9562 67.7036 28.9562C66.8286 28.9562 66.0587 28.7573 65.3939 28.3596C64.7292 27.9619 64.2093 27.3965 63.8343 26.6636C63.465 25.9306 63.2775 25.0528 63.2718 24.0301V15.6948H66.9025V23.3823C66.9082 24.1551 67.1155 24.7658 67.5246 25.2147C67.9337 25.6636 68.482 25.888 69.1695 25.888C69.607 25.888 70.0161 25.7886 70.3968 25.5897C70.7775 25.3852 71.0843 25.084 71.3172 24.6863C71.5559 24.2886 71.6724 23.7971 71.6667 23.2119Z" fill="white"/>
<path d="M48.4252 14.3738V11.3312H62.7604V14.3738H57.4166V28.7857H53.7689V14.3738H48.4252Z" fill="white"/>
<path d="M31.5966 0.5H5.2661C2.35771 0.5 0 2.85771 0 5.7661V32.0966C0 35.005 2.35771 37.3627 5.2661 37.3627H31.5966C34.505 37.3627 36.8627 35.005 36.8627 32.0966V5.7661C36.8627 2.85771 34.505 0.5 31.5966 0.5Z" fill="url(#paint4_linear_1_88)"/>
<path d="M6 18.7208C6.03585 18.7683 6.08225 18.821 6.13708 18.763C7.34129 17.4934 8.54408 16.2242 9.74548 14.9553C9.84249 14.8499 9.93106 14.7444 10.0323 14.6453C10.1419 14.5065 10.2794 14.3922 10.4358 14.3098C10.5923 14.2274 10.7644 14.1787 10.9408 14.1669C11.1173 14.1551 11.2942 14.1804 11.4603 14.2412C11.6264 14.3019 11.7779 14.3969 11.905 14.5198C12.0432 14.6453 12.1539 14.7981 12.2302 14.9684C12.3065 15.1388 12.3468 15.3231 12.3485 15.5097C12.3502 15.6964 12.3132 15.8814 12.24 16.0531C12.1668 16.2248 12.0588 16.3795 11.923 16.5075C11.1279 17.3605 10.3254 18.2073 9.49768 19.0256C9.21719 19.3018 9.26464 19.4357 9.51455 19.6867C10.3381 20.5113 11.1374 21.3612 11.9398 22.209C12.0713 22.3337 12.1758 22.484 12.2468 22.6506C12.3179 22.8173 12.3539 22.9968 12.3529 23.1779C12.3518 23.3591 12.3135 23.5381 12.2405 23.7039C12.1674 23.8697 12.0612 24.0188 11.9282 24.1418C11.8101 24.2747 11.6637 24.3795 11.4998 24.4483C11.3358 24.5172 11.1586 24.5485 10.981 24.5399C10.8034 24.5313 10.6299 24.4831 10.4734 24.3987C10.3169 24.3143 10.1813 24.1959 10.0766 24.0522C8.74162 22.6877 7.37081 21.3528 6.13814 19.8944C6.08647 19.8343 6.03269 19.886 6 19.9335V18.7208Z" fill="white"/>
<path d="M30.4678 19.9298C30.1219 19.836 30.1514 20.1956 30.0196 20.3326C28.7848 21.5737 27.5806 22.8444 26.3532 24.0918C26.246 24.2272 26.1104 24.3373 25.9559 24.4145C25.8014 24.4916 25.6319 24.5339 25.4593 24.5383C25.2867 24.5427 25.1153 24.5092 24.957 24.4401C24.7988 24.3709 24.6577 24.2679 24.5437 24.1382C24.4136 24.0192 24.3087 23.8753 24.2352 23.715C24.1618 23.5547 24.1213 23.3813 24.1162 23.205C24.111 23.0288 24.1414 22.8533 24.2054 22.689C24.2695 22.5247 24.3659 22.3749 24.4889 22.2486C25.2998 21.3818 26.1191 20.5214 26.9585 19.681C27.2115 19.4279 27.2516 19.295 26.9722 19.0198C26.156 18.2163 25.3757 17.3759 24.5849 16.5471C24.3872 16.3738 24.2443 16.1467 24.1733 15.8936C24.1024 15.6405 24.1065 15.3722 24.1852 15.1214C24.2489 14.8866 24.3773 14.6743 24.5557 14.5087C24.7341 14.3432 24.9554 14.2311 25.1944 14.1851C25.4438 14.1455 25.6994 14.1749 25.9334 14.27C26.1674 14.3652 26.3709 14.5225 26.5219 14.725C27.7796 16.055 29.0344 17.3875 30.2864 18.7225C30.3486 18.7889 30.4108 18.8131 30.4699 18.7225L30.4678 19.9298Z" fill="white"/>
<path d="M14.7004 26.7863C14.462 26.7936 14.2261 26.7355 14.0183 26.6184C13.8105 26.5013 13.6388 26.3295 13.5216 26.1217C13.4044 25.914 13.3463 25.6781 13.3535 25.4397C13.3607 25.2013 13.4331 24.9694 13.5626 24.7691C14.5981 22.9354 15.6526 21.1112 16.6913 19.2795C17.9194 17.1137 19.1436 14.9478 20.364 12.7819C20.4916 12.5552 20.6139 12.3243 20.7605 12.1102C20.8406 11.9699 20.9479 11.8471 21.0762 11.749C21.2045 11.6509 21.3511 11.5794 21.5075 11.5388C21.6638 11.4982 21.8267 11.4894 21.9865 11.5127C22.1464 11.536 22.2999 11.5911 22.4381 11.6747C22.5883 11.7478 22.7216 11.8512 22.8296 11.9786C22.9376 12.1059 23.018 12.2543 23.0656 12.4143C23.1132 12.5744 23.127 12.7426 23.1061 12.9082C23.0852 13.0739 23.0301 13.2334 22.9443 13.3766C22.2061 14.7327 21.4416 16.0708 20.6803 17.4131C19.0564 20.275 17.423 23.1305 15.8055 25.9965C15.7031 26.2111 15.5481 26.3962 15.3549 26.5347C15.1616 26.6732 14.9365 26.7605 14.7004 26.7884" fill="white"/>
<defs>
<linearGradient id="paint0_linear_1_88" x1="172.646" y1="25.6072" x2="126.96" y2="40.7271" gradientUnits="userSpaceOnUse">
<stop stop-color="#4AA6F7"/>
<stop offset="0.496072" stop-color="#4AA6F7"/>
<stop offset="1" stop-color="#1141BD"/>
</linearGradient>
<linearGradient id="paint1_linear_1_88" x1="172.646" y1="25.6071" x2="126.96" y2="40.7271" gradientUnits="userSpaceOnUse">
<stop stop-color="#4AA6F7"/>
<stop offset="0.496072" stop-color="#4AA6F7"/>
<stop offset="1" stop-color="#1141BD"/>
</linearGradient>
<linearGradient id="paint2_linear_1_88" x1="172.646" y1="25.6071" x2="126.96" y2="40.7271" gradientUnits="userSpaceOnUse">
<stop stop-color="#4AA6F7"/>
<stop offset="0.496072" stop-color="#4AA6F7"/>
<stop offset="1" stop-color="#1141BD"/>
</linearGradient>
<linearGradient id="paint3_linear_1_88" x1="172.646" y1="25.6072" x2="126.96" y2="40.7271" gradientUnits="userSpaceOnUse">
<stop stop-color="#4AA6F7"/>
<stop offset="0.496072" stop-color="#4AA6F7"/>
<stop offset="1" stop-color="#1141BD"/>
</linearGradient>
<linearGradient id="paint4_linear_1_88" x1="82" y1="20" x2="-2.77813" y2="17.0826" gradientUnits="userSpaceOnUse">
<stop offset="0.191743" stop-color="#4AA6F7"/>
<stop offset="0.271902" stop-color="#4AA6F7"/>
<stop offset="1" stop-color="#1141BD"/>
</linearGradient>
</defs>
</svg>
